<svg width="232" height="40" viewBox="0 0 232 40" fill="none" xmlns="http://www.w3.org/2000/svg">
<mask id="path-1-outside-1_429_149" maskUnits="userSpaceOnUse" x="51.4805" y="9.25134" width="20" height="21" fill="black">
<rect fill="white" x="51.4805" y="9.25134" width="20" height="21"/>
<path d="M52.8563 29.2513V10.245H70.7737V12.2248H55.2321V18.5603H70.0684V20.5401H55.2321V29.2513H52.8563Z"/>
</mask>
<path d="M52.8563 29.2513V10.245H70.7737V12.2248H55.2321V18.5603H70.0684V20.5401H55.2321V29.2513H52.8563Z" fill="white"/>
<path d="M52.8563 29.2513H52.2801V29.8275H52.8563V29.2513ZM52.8563 10.245V9.66885H52.2801V10.245H52.8563ZM70.7737 10.245H71.3499V9.66885H70.7737V10.245ZM70.7737 12.2248V12.801H71.3499V12.2248H70.7737ZM55.2321 12.2248V11.6487H54.6559V12.2248H55.2321ZM55.2321 18.5603H54.6559V19.1364H55.2321V18.5603ZM70.0684 18.5603H70.6445V17.9841H70.0684V18.5603ZM70.0684 20.5401V21.1162H70.6445V20.5401H70.0684ZM55.2321 20.5401V19.964H54.6559V20.5401H55.2321ZM55.2321 29.2513V29.8275H55.8082V29.2513H55.2321ZM52.8563 29.2513H53.4324V10.245H52.8563H52.2801V29.2513H52.8563ZM52.8563 10.245V10.8211H70.7737V10.245V9.66885H52.8563V10.245ZM70.7737 10.245H70.1976V12.2248H70.7737H71.3499V10.245H70.7737ZM70.7737 12.2248V11.6487H55.2321V12.2248V12.801H70.7737V12.2248ZM55.2321 12.2248H54.6559V18.5603H55.2321H55.8082V12.2248H55.2321ZM55.2321 18.5603V19.1364H70.0684V18.5603V17.9841H55.2321V18.5603ZM70.0684 18.5603H69.4922V20.5401H70.0684H70.6445V18.5603H70.0684ZM70.0684 20.5401V19.964H55.2321V20.5401V21.1162H70.0684V20.5401ZM55.2321 20.5401H54.6559V29.2513H55.2321H55.8082V20.5401H55.2321ZM55.2321 29.2513V28.6752H52.8563V29.2513V29.8275H55.2321V29.2513Z" fill="white" mask="url(#path-1-outside-1_429_149)"/>
<mask id="path-3-outside-2_429_149" maskUnits="userSpaceOnUse" x="72.8887" y="9.25134" width="5" height="21" fill="black">
<rect fill="white" x="72.8887" y="9.25134" width="5" height="21"/>
<path d="M74.2645 29.2513V10.245H76.6403V29.2513H74.2645Z"/>
</mask>
<path d="M74.2645 29.2513V10.245H76.6403V29.2513H74.2645Z" fill="white"/>
<path d="M74.2645 29.2513H73.6883V29.8275H74.2645V29.2513ZM74.2645 10.245V9.66885H73.6883V10.245H74.2645ZM76.6403 10.245H77.2164V9.66885H76.6403V10.245ZM76.6403 29.2513V29.8275H77.2164V29.2513H76.6403ZM74.2645 29.2513H74.8406V10.245H74.2645H73.6883V29.2513H74.2645ZM74.2645 10.245V10.8211H76.6403V10.245V9.66885H74.2645V10.245ZM76.6403 10.245H76.0641V29.2513H76.6403H77.2164V10.245H76.6403ZM76.6403 29.2513V28.6752H74.2645V29.2513V29.8275H76.6403V29.2513Z" fill="white" mask="url(#path-3-outside-2_429_149)"/>
<mask id="path-5-outside-3_429_149" maskUnits="userSpaceOnUse" x="79.0244" y="13.2513" width="20" height="17" fill="black">
<rect fill="white" x="79.0244" y="13.2513" width="20" height="17"/>
<path d="M88.9359 29.5236C87.3438 29.5236 85.9909 29.4411 84.8773 29.2761C83.7636 29.1194 82.8645 28.7935 82.1798 28.2986C81.4951 27.7953 80.996 27.0447 80.6825 26.0465C80.369 25.0483 80.2123 23.7161 80.2123 22.0497C80.2123 20.4329 80.369 19.1377 80.6825 18.1643C80.996 17.1909 81.4951 16.4567 82.1798 15.9617C82.8645 15.4668 83.7636 15.1368 84.8773 14.9718C85.9909 14.8068 87.3438 14.7244 88.9359 14.7244C90.5363 14.7244 91.8892 14.8068 92.9946 14.9718C94.1082 15.1368 95.0074 15.4668 95.6921 15.9617C96.3768 16.4567 96.8759 17.1909 97.1893 18.1643C97.5028 19.1377 97.6595 20.4329 97.6595 22.0497C97.6595 23.7161 97.5028 25.0483 97.1893 26.0465C96.8759 27.0447 96.3768 27.7953 95.6921 28.2986C95.0074 28.7935 94.1082 29.1194 92.9946 29.2761C91.8892 29.4411 90.5363 29.5236 88.9359 29.5236ZM95.2838 22.0497C95.2838 20.8701 95.2219 19.9255 95.0981 19.2161C94.9827 18.5067 94.7228 17.9746 94.3186 17.6199C93.9144 17.2569 93.2833 17.0135 92.4254 16.8898C91.5757 16.7661 90.4125 16.7042 88.9359 16.7042C87.4676 16.7042 86.3044 16.7661 85.4465 16.8898C84.5886 17.0135 83.9575 17.2569 83.5533 17.6199C83.1491 17.9746 82.8851 18.5067 82.7613 19.2161C82.6458 19.9255 82.5881 20.8701 82.5881 22.0497C82.5881 23.2706 82.6458 24.2482 82.7613 24.9823C82.8851 25.7165 83.1491 26.2692 83.5533 26.6404C83.9575 27.0034 84.5886 27.2468 85.4465 27.3705C86.3044 27.486 87.4676 27.5437 88.9359 27.5437C90.4125 27.5437 91.5757 27.486 92.4254 27.3705C93.2833 27.2468 93.9144 27.0034 94.3186 26.6404C94.7228 26.2692 94.9827 25.7165 95.0981 24.9823C95.2219 24.2482 95.2838 23.2706 95.2838 22.0497Z"/>
</mask>
<path d="M88.9359 29.5236C87.3438 29.5236 85.9909 29.4411 84.8773 29.2761C83.7636 29.1194 82.8645 28.7935 82.1798 28.2986C81.4951 27.7953 80.996 27.0447 80.6825 26.0465C80.369 25.0483 80.2123 23.7161 80.2123 22.0497C80.2123 20.4329 80.369 19.1377 80.6825 18.1643C80.996 17.1909 81.4951 16.4567 82.1798 15.9617C82.8645 15.4668 83.7636 15.1368 84.8773 14.9718C85.9909 14.8068 87.3438 14.7244 88.9359 14.7244C90.5363 14.7244 91.8892 14.8068 92.9946 14.9718C94.1082 15.1368 95.0074 15.4668 95.6921 15.9617C96.3768 16.4567 96.8759 17.1909 97.1893 18.1643C97.5028 19.1377 97.6595 20.4329 97.6595 22.0497C97.6595 23.7161 97.5028 25.0483 97.1893 26.0465C96.8759 27.0447 96.3768 27.7953 95.6921 28.2986C95.0074 28.7935 94.1082 29.1194 92.9946 29.2761C91.8892 29.4411 90.5363 29.5236 88.9359 29.5236ZM95.2838 22.0497C95.2838 20.8701 95.2219 19.9255 95.0981 19.2161C94.9827 18.5067 94.7228 17.9746 94.3186 17.6199C93.9144 17.2569 93.2833 17.0135 92.4254 16.8898C91.5757 16.7661 90.4125 16.7042 88.9359 16.7042C87.4676 16.7042 86.3044 16.7661 85.4465 16.8898C84.5886 17.0135 83.9575 17.2569 83.5533 17.6199C83.1491 17.9746 82.8851 18.5067 82.7613 19.2161C82.6458 19.9255 82.5881 20.8701 82.5881 22.0497C82.5881 23.2706 82.6458 24.2482 82.7613 24.9823C82.8851 25.7165 83.1491 26.2692 83.5533 26.6404C83.9575 27.0034 84.5886 27.2468 85.4465 27.3705C86.3044 27.486 87.4676 27.5437 88.9359 27.5437C90.4125 27.5437 91.5757 27.486 92.4254 27.3705C93.2833 27.2468 93.9144 27.0034 94.3186 26.6404C94.7228 26.2692 94.9827 25.7165 95.0981 24.9823C95.2219 24.2482 95.2838 23.2706 95.2838 22.0497Z" fill="white"/>
<path d="M84.8773 29.2761L84.9617 28.7061L84.9576 28.7056L84.8773 29.2761ZM82.1798 28.2985L81.8386 28.7628L81.8422 28.7655L82.1798 28.2985ZM92.9946 14.9718L92.9095 15.5417L92.9101 15.5418L92.9946 14.9718ZM95.6921 28.2985L96.0296 28.7655L96.0333 28.7628L95.6921 28.2985ZM92.9946 29.2761L92.9143 28.7055L92.9095 28.7063L92.9946 29.2761ZM95.0981 19.2161L94.5294 19.3087L94.5306 19.3151L95.0981 19.2161ZM94.3186 17.6199L93.9336 18.0486L93.9386 18.0529L94.3186 17.6199ZM92.4254 16.8898L92.3423 17.4599L92.3431 17.46L92.4254 16.8898ZM83.5533 17.6199L83.9333 18.0529L83.9382 18.0485L83.5533 17.6199ZM82.7613 19.2161L82.1937 19.1171L82.1927 19.1235L82.7613 19.2161ZM82.7613 24.9823L82.1922 25.0719L82.1932 25.0781L82.7613 24.9823ZM83.5533 26.6404L83.1635 27.0648L83.1683 27.0691L83.5533 26.6404ZM85.4465 27.3705L85.3642 27.9408L85.3696 27.9415L85.4465 27.3705ZM92.4254 27.3705L92.503 27.9414L92.5076 27.9408L92.4254 27.3705ZM94.3186 26.6404L94.7035 27.0692L94.7083 27.0648L94.3186 26.6404ZM95.0981 24.9823L94.53 24.8866L94.529 24.8928L95.0981 24.9823ZM88.9359 29.5236V28.9474C87.3615 28.9474 86.0386 28.8657 84.9617 28.7062L84.8773 29.2761L84.7928 29.846C85.9433 30.0164 87.3261 30.0997 88.9359 30.0997V29.5236ZM84.8773 29.2761L84.9576 28.7056C83.9073 28.5577 83.105 28.2565 82.5173 27.8316L82.1798 28.2985L81.8422 28.7655C82.6239 29.3306 83.62 29.681 84.797 29.8466L84.8773 29.2761ZM82.1798 28.2985L82.521 27.8343C81.956 27.419 81.5176 26.7826 81.2322 25.8739L80.6825 26.0465L80.1328 26.2191C80.4744 27.3067 81.0342 28.1716 81.8386 28.7628L82.1798 28.2985ZM80.6825 26.0465L81.2322 25.8739C80.9435 24.9546 80.7885 23.6879 80.7885 22.0497H80.2123H79.6362C79.6362 23.7443 79.7946 25.1421 80.1328 26.2191L80.6825 26.0465ZM80.2123 22.0497H80.7885C80.7885 20.4622 80.9433 19.2341 81.2309 18.3409L80.6825 18.1643L80.1341 17.9877C79.7948 19.0414 79.6362 20.4035 79.6362 22.0497H80.2123ZM80.6825 18.1643L81.2309 18.3409C81.5149 17.4591 81.9515 16.8377 82.5173 16.4287L82.1798 15.9617L81.8422 15.4948C81.0387 16.0757 80.4771 16.9227 80.1341 17.9877L80.6825 18.1643ZM82.1798 15.9617L82.5173 16.4287C83.1064 16.0028 83.9103 15.6975 84.9617 15.5418L84.8773 14.9718L84.7928 14.4019C83.6169 14.5761 82.6225 14.9308 81.8422 15.4948L82.1798 15.9617ZM84.8773 14.9718L84.9617 15.5418C86.0386 15.3822 87.3615 15.3005 88.9359 15.3005V14.7244V14.1482C87.3261 14.1482 85.9433 14.2315 84.7928 14.4019L84.8773 14.9718ZM88.9359 14.7244V15.3005C90.5189 15.3005 91.8414 15.3823 92.9095 15.5417L92.9946 14.9718L93.0796 14.402C91.9369 14.2314 90.5537 14.1482 88.9359 14.1482V14.7244ZM92.9946 14.9718L92.9101 15.5418C93.9615 15.6975 94.7655 16.0028 95.3546 16.4287L95.6921 15.9617L96.0296 15.4948C95.2493 14.9308 94.2549 14.5761 93.079 14.4019L92.9946 14.9718ZM95.6921 15.9617L95.3546 16.4287C95.9204 16.8377 96.357 17.4591 96.6409 18.3409L97.1893 18.1643L97.7377 17.9877C97.3948 16.9227 96.8332 16.0757 96.0296 15.4948L95.6921 15.9617ZM97.1893 18.1643L96.6409 18.3409C96.9285 19.2341 97.0834 20.4622 97.0834 22.0497H97.6595H98.2357C98.2357 20.4035 98.0771 19.0414 97.7377 17.9877L97.1893 18.1643ZM97.6595 22.0497H97.0834C97.0834 23.6879 96.9284 24.9546 96.6397 25.8739L97.1893 26.0465L97.739 26.2191C98.0773 25.1421 98.2357 23.7443 98.2357 22.0497H97.6595ZM97.1893 26.0465L96.6397 25.8739C96.3543 26.7826 95.9159 27.419 95.3509 27.8343L95.6921 28.2985L96.0333 28.7628C96.8377 28.1716 97.3975 27.3067 97.739 26.2191L97.1893 26.0465ZM95.6921 28.2985L95.3546 27.8316C94.7669 28.2565 93.9646 28.5577 92.9143 28.7056L92.9946 29.2761L93.0749 29.8466C94.2519 29.681 95.2479 29.3306 96.0296 28.7655L95.6921 28.2985ZM92.9946 29.2761L92.9095 28.7063C91.8414 28.8657 90.5189 28.9474 88.9359 28.9474V29.5236V30.0997C90.5537 30.0997 91.9369 30.0165 93.0796 29.8459L92.9946 29.2761ZM95.2838 22.0497H95.8599C95.8599 20.855 95.7976 19.8732 95.6657 19.1171L95.0981 19.2161L94.5306 19.3151C94.6462 19.9779 94.7076 20.8852 94.7076 22.0497H95.2838ZM95.0981 19.2161L95.6668 19.1235C95.5371 18.3267 95.2327 17.6555 94.6986 17.1868L94.3186 17.6199L93.9386 18.0529C94.2129 18.2937 94.4282 18.6866 94.5295 19.3087L95.0981 19.2161ZM94.3186 17.6199L94.7035 17.1912C94.1779 16.7192 93.4168 16.4507 92.5076 16.3195L92.4254 16.8898L92.3431 17.46C93.1498 17.5764 93.6508 17.7946 93.9336 18.0485L94.3186 17.6199ZM92.4254 16.8898L92.5084 16.3197C91.6186 16.1901 90.4236 16.128 88.9359 16.128V16.7042V17.2803C90.4015 17.2803 91.5328 17.342 92.3423 17.4599L92.4254 16.8898ZM88.9359 16.7042V16.128C87.4561 16.128 86.2617 16.1901 85.3642 16.3195L85.4465 16.8898L85.5287 17.46C86.3471 17.342 87.479 17.2803 88.9359 17.2803V16.7042ZM85.4465 16.8898L85.3642 16.3195C84.4551 16.4507 83.6939 16.7192 83.1683 17.1912L83.5533 17.6199L83.9382 18.0485C84.221 17.7946 84.7221 17.5764 85.5287 17.46L85.4465 16.8898ZM83.5533 17.6199L83.1732 17.1868C82.6413 17.6537 82.3324 18.3221 82.1938 19.1171L82.7613 19.2161L83.3289 19.3151C83.4377 18.6912 83.6569 18.2955 83.9333 18.0529L83.5533 17.6199ZM82.7613 19.2161L82.1927 19.1235C82.0701 19.8767 82.012 20.856 82.012 22.0497H82.5881H83.1643C83.1643 20.8841 83.2216 19.9744 83.33 19.3087L82.7613 19.2161ZM82.5881 22.0497H82.012C82.012 23.2842 82.07 24.2954 82.1922 25.0719L82.7613 24.9823L83.3305 24.8928C83.2217 24.2009 83.1643 23.2571 83.1643 22.0497H82.5881ZM82.7613 24.9823L82.1932 25.0781C82.3307 25.8939 82.6363 26.5806 83.1636 27.0648L83.5533 26.6404L83.943 26.2161C83.6618 25.9579 83.4394 25.5391 83.3295 24.8866L82.7613 24.9823ZM83.5533 26.6404L83.1683 27.0691C83.6939 27.5411 84.4551 27.8096 85.3642 27.9408L85.4465 27.3705L85.5287 26.8003C84.7221 26.6839 84.221 26.4657 83.9382 26.2118L83.5533 26.6404ZM85.4465 27.3705L85.3696 27.9415C86.2645 28.062 87.4569 28.1199 88.9359 28.1199V27.5437V26.9676C87.4782 26.9676 86.3443 26.91 85.5233 26.7995L85.4465 27.3705ZM88.9359 27.5437V28.1199C90.4229 28.1199 91.6157 28.062 92.503 27.9414L92.4254 27.3705L92.3478 26.7996C91.5357 26.91 90.4022 26.9676 88.9359 26.9676V27.5437ZM92.4254 27.3705L92.5076 27.9408C93.4168 27.8096 94.1779 27.5411 94.7035 27.0691L94.3186 26.6404L93.9336 26.2118C93.6508 26.4657 93.1498 26.6839 92.3431 26.8003L92.4254 27.3705ZM94.3186 26.6404L94.7083 27.0648C95.2375 26.5788 95.5387 25.8894 95.6673 25.0719L95.0981 24.9823L94.529 24.8928C94.4266 25.5437 94.2081 25.9597 93.9289 26.2161L94.3186 26.6404ZM95.0981 24.9823L95.6663 25.0781C95.7976 24.2987 95.8599 23.2852 95.8599 22.0497H95.2838H94.7076C94.7076 23.2561 94.6461 24.1976 94.53 24.8866L95.0981 24.9823Z" fill="white" mask="url(#path-5-outside-3_429_149)"/>
<mask id="path-7-outside-4_429_149" maskUnits="userSpaceOnUse" x="99.0059" y="14.2513" width="28" height="16" fill="black">
<rect fill="white" x="99.0059" y="14.2513" width="28" height="16"/>
<path d="M105.341 29.2513L99.872 14.9966H102.57L106.913 27.3334H106.938L111.677 14.9966H114.053L118.742 27.3334H118.767L123.16 14.9966H125.857L120.388 29.2513H117.22L112.877 17.7065H112.852L108.509 29.2513H105.341Z"/>
</mask>
<path d="M105.341 29.2513L99.872 14.9966H102.57L106.913 27.3334H106.938L111.677 14.9966H114.053L118.742 27.3334H118.767L123.16 14.9966H125.857L120.388 29.2513H117.22L112.877 17.7065H112.852L108.509 29.2513H105.341Z" fill="white"/>
<path d="M105.341 29.2513L104.803 29.4577L104.945 29.8275H105.341V29.2513ZM99.872 14.9966V14.4204H99.0339L99.3341 15.203L99.872 14.9966ZM102.57 14.9966L103.113 14.8053L102.978 14.4204H102.57V14.9966ZM106.913 27.3334L106.369 27.5247L106.505 27.9095H106.913V27.3334ZM106.938 27.3334V27.9095H107.333L107.475 27.54L106.938 27.3334ZM111.677 14.9966V14.4204H111.281L111.139 14.79L111.677 14.9966ZM114.053 14.9966L114.591 14.7919L114.45 14.4204H114.053V14.9966ZM118.742 27.3334L118.204 27.5381L118.345 27.9095H118.742V27.3334ZM118.767 27.3334V27.9095H119.173L119.31 27.5266L118.767 27.3334ZM123.16 14.9966V14.4204H122.753L122.617 14.8033L123.16 14.9966ZM125.857 14.9966L126.395 15.203L126.695 14.4204H125.857V14.9966ZM120.388 29.2513V29.8275H120.784L120.926 29.4577L120.388 29.2513ZM117.22 29.2513L116.681 29.4542L116.821 29.8275H117.22V29.2513ZM112.877 17.7065L113.416 17.5036L113.276 17.1303H112.877V17.7065ZM112.852 17.7065V17.1303H112.453L112.313 17.5036L112.852 17.7065ZM108.509 29.2513V29.8275H108.908L109.048 29.4542L108.509 29.2513ZM105.341 29.2513L105.879 29.045L100.41 14.7902L99.872 14.9966L99.3341 15.203L104.803 29.4577L105.341 29.2513ZM99.872 14.9966V15.5727H102.57V14.9966V14.4204H99.872V14.9966ZM102.57 14.9966L102.026 15.1879L106.369 27.5247L106.913 27.3334L107.456 27.1421L103.113 14.8053L102.57 14.9966ZM106.913 27.3334V27.9095H106.938V27.3334V26.7572H106.913V27.3334ZM106.938 27.3334L107.475 27.54L112.215 15.2032L111.677 14.9966L111.139 14.79L106.4 27.1268L106.938 27.3334ZM111.677 14.9966V15.5727H114.053V14.9966V14.4204H111.677V14.9966ZM114.053 14.9966L113.514 15.2013L118.204 27.5381L118.742 27.3334L119.281 27.1287L114.591 14.7919L114.053 14.9966ZM118.742 27.3334V27.9095H118.767V27.3334V26.7572H118.742V27.3334ZM118.767 27.3334L119.31 27.5266L123.703 15.1898L123.16 14.9966L122.617 14.8033L118.224 27.1401L118.767 27.3334ZM123.16 14.9966V15.5727H125.857V14.9966V14.4204H123.16V14.9966ZM125.857 14.9966L125.319 14.7902L119.85 29.045L120.388 29.2513L120.926 29.4577L126.395 15.203L125.857 14.9966ZM120.388 29.2513V28.6752H117.22V29.2513V29.8275H120.388V29.2513ZM117.22 29.2513L117.76 29.0485L113.416 17.5036L112.877 17.7065L112.338 17.9093L116.681 29.4542L117.22 29.2513ZM112.877 17.7065V17.1303H112.852V17.7065V18.2826H112.877V17.7065ZM112.852 17.7065L112.313 17.5036L107.97 29.0485L108.509 29.2513L109.048 29.4542L113.392 17.9093L112.852 17.7065ZM108.509 29.2513V28.6752H105.341V29.2513V29.8275H108.509V29.2513Z" fill="white" mask="url(#path-7-outside-4_429_149)"/>
<mask id="path-9-outside-5_429_149" maskUnits="userSpaceOnUse" x="151.337" y="14.2513" width="28" height="16" fill="black">
<rect fill="white" x="151.337" y="14.2513" width="28" height="16"/>
<path d="M157.672 29.2513L152.203 14.9966H154.901L159.244 27.3334H159.269L164.008 14.9966H166.384L171.073 27.3334H171.098L175.491 14.9966H178.188L172.719 29.2513H169.551L165.208 17.7065H165.183L160.84 29.2513H157.672Z"/>
</mask>
<path d="M157.672 29.2513L152.203 14.9966H154.901L159.244 27.3334H159.269L164.008 14.9966H166.384L171.073 27.3334H171.098L175.491 14.9966H178.188L172.719 29.2513H169.551L165.208 17.7065H165.183L160.84 29.2513H157.672Z" fill="white"/>
<path d="M157.672 29.2513L157.134 29.4577L157.276 29.8275H157.672V29.2513ZM152.203 14.9966V14.4204H151.365L151.665 15.203L152.203 14.9966ZM154.901 14.9966L155.444 14.8053L155.309 14.4204H154.901V14.9966ZM159.244 27.3334L158.7 27.5247L158.836 27.9095H159.244V27.3334ZM159.269 27.3334V27.9095H159.664L159.806 27.54L159.269 27.3334ZM164.008 14.9966V14.4204H163.612L163.47 14.79L164.008 14.9966ZM166.384 14.9966L166.922 14.7919L166.781 14.4204H166.384V14.9966ZM171.073 27.3334L170.535 27.5381L170.676 27.9095H171.073V27.3334ZM171.098 27.3334V27.9095H171.505L171.641 27.5266L171.098 27.3334ZM175.491 14.9966V14.4204H175.084L174.948 14.8033L175.491 14.9966ZM178.188 14.9966L178.726 15.203L179.026 14.4204H178.188V14.9966ZM172.719 29.2513V29.8275H173.115L173.257 29.4577L172.719 29.2513ZM169.551 29.2513L169.012 29.4542L169.153 29.8275H169.551V29.2513ZM165.208 17.7065L165.747 17.5036L165.607 17.1303H165.208V17.7065ZM165.183 17.7065V17.1303H164.785L164.644 17.5036L165.183 17.7065ZM160.84 29.2513V29.8275H161.239L161.379 29.4542L160.84 29.2513ZM157.672 29.2513L158.21 29.045L152.741 14.7902L152.203 14.9966L151.665 15.203L157.134 29.4577L157.672 29.2513ZM152.203 14.9966V15.5727H154.901V14.9966V14.4204H152.203V14.9966ZM154.901 14.9966L154.357 15.1879L158.7 27.5247L159.244 27.3334L159.787 27.1421L155.444 14.8053L154.901 14.9966ZM159.244 27.3334V27.9095H159.269V27.3334V26.7572H159.244V27.3334ZM159.269 27.3334L159.806 27.54L164.546 15.2032L164.008 14.9966L163.47 14.79L158.731 27.1268L159.269 27.3334ZM164.008 14.9966V15.5727H166.384V14.9966V14.4204H164.008V14.9966ZM166.384 14.9966L165.845 15.2013L170.535 27.5381L171.073 27.3334L171.612 27.1287L166.922 14.7919L166.384 14.9966ZM171.073 27.3334V27.9095H171.098V27.3334V26.7572H171.073V27.3334ZM171.098 27.3334L171.641 27.5266L176.034 15.1898L175.491 14.9966L174.948 14.8033L170.555 27.1401L171.098 27.3334ZM175.491 14.9966V15.5727H178.188V14.9966V14.4204H175.491V14.9966ZM178.188 14.9966L177.65 14.7902L172.181 29.045L172.719 29.2513L173.257 29.4577L178.726 15.203L178.188 14.9966ZM172.719 29.2513V28.6752H169.551V29.2513V29.8275H172.719V29.2513ZM169.551 29.2513L170.091 29.0485L165.747 17.5036L165.208 17.7065L164.669 17.9093L169.012 29.4542L169.551 29.2513ZM165.208 17.7065V17.1303H165.183V17.7065V18.2826H165.208V17.7065ZM165.183 17.7065L164.644 17.5036L160.301 29.0485L160.84 29.2513L161.379 29.4542L165.723 17.9093L165.183 17.7065ZM160.84 29.2513V28.6752H157.672V29.2513V29.8275H160.84V29.2513Z" fill="white" mask="url(#path-9-outside-5_429_149)"/>
<mask id="path-11-outside-6_429_149" maskUnits="userSpaceOnUse" x="179.405" y="13.2513" width="20" height="17" fill="black">
<rect fill="white" x="179.405" y="13.2513" width="20" height="17"/>
<path d="M189.317 29.5236C187.725 29.5236 186.372 29.4411 185.258 29.2761C184.144 29.1194 183.245 28.7935 182.561 28.2986C181.876 27.7953 181.377 27.0447 181.063 26.0465C180.75 25.0483 180.593 23.7161 180.593 22.0497C180.593 20.4329 180.75 19.1377 181.063 18.1643C181.377 17.1909 181.876 16.4567 182.561 15.9617C183.245 15.4668 184.144 15.1368 185.258 14.9718C186.372 14.8068 187.725 14.7244 189.317 14.7244C190.917 14.7244 192.27 14.8068 193.375 14.9718C194.489 15.1368 195.388 15.4668 196.073 15.9617C196.758 16.4567 197.257 17.1909 197.57 18.1643C197.884 19.1377 198.04 20.4329 198.04 22.0497C198.04 23.7161 197.884 25.0483 197.57 26.0465C197.257 27.0447 196.758 27.7953 196.073 28.2986C195.388 28.7935 194.489 29.1194 193.375 29.2761C192.27 29.4411 190.917 29.5236 189.317 29.5236ZM195.665 22.0497C195.665 20.8701 195.603 19.9255 195.479 19.2161C195.364 18.5067 195.104 17.9746 194.699 17.6199C194.295 17.2569 193.664 17.0135 192.806 16.8898C191.957 16.7661 190.793 16.7042 189.317 16.7042C187.848 16.7042 186.685 16.7661 185.827 16.8898C184.969 17.0135 184.338 17.2569 183.934 17.6199C183.53 17.9746 183.266 18.5067 183.142 19.2161C183.027 19.9255 182.969 20.8701 182.969 22.0497C182.969 23.2706 183.027 24.2482 183.142 24.9823C183.266 25.7165 183.53 26.2692 183.934 26.6404C184.338 27.0034 184.969 27.2468 185.827 27.3705C186.685 27.486 187.848 27.5437 189.317 27.5437C190.793 27.5437 191.957 27.486 192.806 27.3705C193.664 27.2468 194.295 27.0034 194.699 26.6404C195.104 26.2692 195.364 25.7165 195.479 24.9823C195.603 24.2482 195.665 23.2706 195.665 22.0497Z"/>
</mask>
<path d="M189.317 29.5236C187.725 29.5236 186.372 29.4411 185.258 29.2761C184.144 29.1194 183.245 28.7935 182.561 28.2986C181.876 27.7953 181.377 27.0447 181.063 26.0465C180.75 25.0483 180.593 23.7161 180.593 22.0497C180.593 20.4329 180.75 19.1377 181.063 18.1643C181.377 17.1909 181.876 16.4567 182.561 15.9617C183.245 15.4668 184.144 15.1368 185.258 14.9718C186.372 14.8068 187.725 14.7244 189.317 14.7244C190.917 14.7244 192.27 14.8068 193.375 14.9718C194.489 15.1368 195.388 15.4668 196.073 15.9617C196.758 16.4567 197.257 17.1909 197.57 18.1643C197.884 19.1377 198.04 20.4329 198.04 22.0497C198.04 23.7161 197.884 25.0483 197.57 26.0465C197.257 27.0447 196.758 27.7953 196.073 28.2986C195.388 28.7935 194.489 29.1194 193.375 29.2761C192.27 29.4411 190.917 29.5236 189.317 29.5236ZM195.665 22.0497C195.665 20.8701 195.603 19.9255 195.479 19.2161C195.364 18.5067 195.104 17.9746 194.699 17.6199C194.295 17.2569 193.664 17.0135 192.806 16.8898C191.957 16.7661 190.793 16.7042 189.317 16.7042C187.848 16.7042 186.685 16.7661 185.827 16.8898C184.969 17.0135 184.338 17.2569 183.934 17.6199C183.53 17.9746 183.266 18.5067 183.142 19.2161C183.027 19.9255 182.969 20.8701 182.969 22.0497C182.969 23.2706 183.027 24.2482 183.142 24.9823C183.266 25.7165 183.53 26.2692 183.934 26.6404C184.338 27.0034 184.969 27.2468 185.827 27.3705C186.685 27.486 187.848 27.5437 189.317 27.5437C190.793 27.5437 191.957 27.486 192.806 27.3705C193.664 27.2468 194.295 27.0034 194.699 26.6404C195.104 26.2692 195.364 25.7165 195.479 24.9823C195.603 24.2482 195.665 23.2706 195.665 22.0497Z" fill="white"/>
<path d="M185.258 29.2761L185.343 28.7061L185.338 28.7056L185.258 29.2761ZM182.561 28.2985L182.219 28.7628L182.223 28.7655L182.561 28.2985ZM193.375 14.9718L193.29 15.5417L193.291 15.5418L193.375 14.9718ZM196.073 28.2985L196.41 28.7655L196.414 28.7628L196.073 28.2985ZM193.375 29.2761L193.295 28.7055L193.29 28.7063L193.375 29.2761ZM195.479 19.2161L194.91 19.3087L194.911 19.3151L195.479 19.2161ZM194.699 17.6199L194.314 18.0486L194.319 18.0529L194.699 17.6199ZM192.806 16.8898L192.723 17.4599L192.724 17.46L192.806 16.8898ZM183.934 17.6199L184.314 18.0529L184.319 18.0485L183.934 17.6199ZM183.142 19.2161L182.575 19.1171L182.574 19.1235L183.142 19.2161ZM183.142 24.9823L182.573 25.0719L182.574 25.0781L183.142 24.9823ZM183.934 26.6404L183.544 27.0648L183.549 27.0691L183.934 26.6404ZM185.827 27.3705L185.745 27.9408L185.75 27.9415L185.827 27.3705ZM192.806 27.3705L192.884 27.9414L192.888 27.9408L192.806 27.3705ZM194.699 26.6404L195.084 27.0692L195.089 27.0648L194.699 26.6404ZM195.479 24.9823L194.911 24.8866L194.91 24.8928L195.479 24.9823ZM189.317 29.5236V28.9474C187.742 28.9474 186.419 28.8657 185.343 28.7062L185.258 29.2761L185.174 29.846C186.324 30.0164 187.707 30.0997 189.317 30.0997V29.5236ZM185.258 29.2761L185.338 28.7056C184.288 28.5577 183.486 28.2565 182.898 27.8316L182.561 28.2985L182.223 28.7655C183.005 29.3306 184.001 29.681 185.178 29.8466L185.258 29.2761ZM182.561 28.2985L182.902 27.8343C182.337 27.419 181.898 26.7826 181.613 25.8739L181.063 26.0465L180.514 26.2191C180.855 27.3067 181.415 28.1716 182.219 28.7628L182.561 28.2985ZM181.063 26.0465L181.613 25.8739C181.324 24.9546 181.169 23.6879 181.169 22.0497H180.593H180.017C180.017 23.7443 180.175 25.1421 180.514 26.2191L181.063 26.0465ZM180.593 22.0497H181.169C181.169 20.4622 181.324 19.2341 181.612 18.3409L181.063 18.1643L180.515 17.9877C180.176 19.0414 180.017 20.4035 180.017 22.0497H180.593ZM181.063 18.1643L181.612 18.3409C181.896 17.4591 182.332 16.8377 182.898 16.4287L182.561 15.9617L182.223 15.4948C181.42 16.0757 180.858 16.9227 180.515 17.9877L181.063 18.1643ZM182.561 15.9617L182.898 16.4287C183.487 16.0028 184.291 15.6975 185.343 15.5418L185.258 14.9718L185.174 14.4019C183.998 14.5761 183.003 14.9308 182.223 15.4948L182.561 15.9617ZM185.258 14.9718L185.343 15.5418C186.419 15.3822 187.742 15.3005 189.317 15.3005V14.7244V14.1482C187.707 14.1482 186.324 14.2315 185.174 14.4019L185.258 14.9718ZM189.317 14.7244V15.3005C190.9 15.3005 192.222 15.3823 193.29 15.5417L193.375 14.9718L193.46 14.402C192.318 14.2314 190.935 14.1482 189.317 14.1482V14.7244ZM193.375 14.9718L193.291 15.5418C194.342 15.6975 195.146 16.0028 195.735 16.4287L196.073 15.9617L196.41 15.4948C195.63 14.9308 194.636 14.5761 193.46 14.4019L193.375 14.9718ZM196.073 15.9617L195.735 16.4287C196.301 16.8377 196.738 17.4591 197.022 18.3409L197.57 18.1643L198.119 17.9877C197.776 16.9227 197.214 16.0757 196.41 15.4948L196.073 15.9617ZM197.57 18.1643L197.022 18.3409C197.309 19.2341 197.464 20.4622 197.464 22.0497H198.04H198.617C198.617 20.4035 198.458 19.0414 198.119 17.9877L197.57 18.1643ZM198.04 22.0497H197.464C197.464 23.6879 197.309 24.9546 197.021 25.8739L197.57 26.0465L198.12 26.2191C198.458 25.1421 198.617 23.7443 198.617 22.0497H198.04ZM197.57 26.0465L197.021 25.8739C196.735 26.7826 196.297 27.419 195.732 27.8343L196.073 28.2985L196.414 28.7628C197.219 28.1716 197.778 27.3067 198.12 26.2191L197.57 26.0465ZM196.073 28.2985L195.735 27.8316C195.148 28.2565 194.345 28.5577 193.295 28.7056L193.375 29.2761L193.456 29.8466C194.633 29.681 195.629 29.3306 196.41 28.7655L196.073 28.2985ZM193.375 29.2761L193.29 28.7063C192.222 28.8657 190.9 28.9474 189.317 28.9474V29.5236V30.0997C190.935 30.0997 192.318 30.0165 193.46 29.8459L193.375 29.2761ZM195.665 22.0497H196.241C196.241 20.855 196.178 19.8732 196.047 19.1171L195.479 19.2161L194.911 19.3151C195.027 19.9779 195.088 20.8852 195.088 22.0497H195.665ZM195.479 19.2161L196.048 19.1235C195.918 18.3267 195.614 17.6555 195.079 17.1868L194.699 17.6199L194.319 18.0529C194.594 18.2937 194.809 18.6866 194.91 19.3087L195.479 19.2161ZM194.699 17.6199L195.084 17.1912C194.559 16.7192 193.798 16.4507 192.888 16.3195L192.806 16.8898L192.724 17.46C193.531 17.5764 194.032 17.7946 194.315 18.0485L194.699 17.6199ZM192.806 16.8898L192.889 16.3197C191.999 16.1901 190.804 16.128 189.317 16.128V16.7042V17.2803C190.782 17.2803 191.914 17.342 192.723 17.4599L192.806 16.8898ZM189.317 16.7042V16.128C187.837 16.128 186.643 16.1901 185.745 16.3195L185.827 16.8898L185.91 17.46C186.728 17.342 187.86 17.2803 189.317 17.2803V16.7042ZM185.827 16.8898L185.745 16.3195C184.836 16.4507 184.075 16.7192 183.549 17.1912L183.934 17.6199L184.319 18.0485C184.602 17.7946 185.103 17.5764 185.91 17.46L185.827 16.8898ZM183.934 17.6199L183.554 17.1868C183.022 17.6537 182.713 18.3221 182.575 19.1171L183.142 19.2161L183.71 19.3151C183.819 18.6912 184.038 18.2955 184.314 18.0529L183.934 17.6199ZM183.142 19.2161L182.574 19.1235C182.451 19.8767 182.393 20.856 182.393 22.0497H182.969H183.545C183.545 20.8841 183.602 19.9744 183.711 19.3087L183.142 19.2161ZM182.969 22.0497H182.393C182.393 23.2842 182.451 24.2954 182.573 25.0719L183.142 24.9823L183.711 24.8928C183.603 24.2009 183.545 23.2571 183.545 22.0497H182.969ZM183.142 24.9823L182.574 25.0781C182.712 25.8939 183.017 26.5806 183.544 27.0648L183.934 26.6404L184.324 26.2161C184.043 25.9579 183.82 25.5391 183.71 24.8866L183.142 24.9823ZM183.934 26.6404L183.549 27.0691C184.075 27.5411 184.836 27.8096 185.745 27.9408L185.827 27.3705L185.91 26.8003C185.103 26.6839 184.602 26.4657 184.319 26.2118L183.934 26.6404ZM185.827 27.3705L185.75 27.9415C186.645 28.062 187.838 28.1199 189.317 28.1199V27.5437V26.9676C187.859 26.9676 186.725 26.91 185.904 26.7995L185.827 27.3705ZM189.317 27.5437V28.1199C190.804 28.1199 191.997 28.062 192.884 27.9414L192.806 27.3705L192.729 26.7996C191.917 26.91 190.783 26.9676 189.317 26.9676V27.5437ZM192.806 27.3705L192.888 27.9408C193.798 27.8096 194.559 27.5411 195.084 27.0691L194.699 26.6404L194.315 26.2118C194.032 26.4657 193.531 26.6839 192.724 26.8003L192.806 27.3705ZM194.699 26.6404L195.089 27.0648C195.618 26.5788 195.92 25.8894 196.048 25.0719L195.479 24.9823L194.91 24.8928C194.807 25.5437 194.589 25.9597 194.31 26.2161L194.699 26.6404ZM195.479 24.9823L196.047 25.0781C196.178 24.2987 196.241 23.2852 196.241 22.0497H195.665H195.088C195.088 23.2561 195.027 24.1976 194.911 24.8866L195.479 24.9823Z" fill="white" mask="url(#path-11-outside-6_429_149)"/>
<mask id="path-13-outside-7_429_149" maskUnits="userSpaceOnUse" x="200.386" y="13.2513" width="11" height="17" fill="black">
<rect fill="white" x="200.386" y="13.2513" width="11" height="17"/>
<path d="M201.217 29.2513V14.9966H203.593V16.964C203.857 16.5433 204.121 16.1927 204.385 15.9123C204.657 15.6318 205.008 15.409 205.437 15.2441C205.874 15.0791 206.464 14.9636 207.206 14.8976C207.948 14.8233 208.926 14.7862 210.139 14.7862V16.7784C208.505 16.7784 207.239 16.8362 206.34 16.9517C205.449 17.0672 204.81 17.2651 204.422 17.5456C204.034 17.8178 203.799 18.1973 203.717 18.684C203.634 19.1707 203.593 19.7894 203.593 20.5401V29.2513H201.217Z"/>
</mask>
<path d="M201.217 29.2513V14.9966H203.593V16.964C203.857 16.5433 204.121 16.1927 204.385 15.9123C204.657 15.6318 205.008 15.409 205.437 15.2441C205.874 15.0791 206.464 14.9636 207.206 14.8976C207.948 14.8233 208.926 14.7862 210.139 14.7862V16.7784C208.505 16.7784 207.239 16.8362 206.34 16.9517C205.449 17.0672 204.81 17.2651 204.422 17.5456C204.034 17.8178 203.799 18.1973 203.717 18.684C203.634 19.1707 203.593 19.7894 203.593 20.5401V29.2513H201.217Z" fill="white"/>
<path d="M201.217 29.2513H200.641V29.8275H201.217V29.2513ZM201.217 14.9966V14.4204H200.641V14.9966H201.217ZM203.593 14.9966H204.169V14.4204H203.593V14.9966ZM203.593 16.964H203.017V18.9663L204.081 17.2703L203.593 16.964ZM204.385 15.9123L203.971 15.5109L203.965 15.5174L204.385 15.9123ZM205.437 15.2441L205.233 14.705L205.23 14.7063L205.437 15.2441ZM207.206 14.8976L207.257 15.4715L207.263 15.4709L207.206 14.8976ZM210.139 14.7862H210.715V14.2101H210.139V14.7862ZM210.139 16.7784V17.3546H210.715V16.7784H210.139ZM206.34 16.9517L206.266 16.3802L206.266 16.3803L206.34 16.9517ZM204.422 17.5456L204.753 18.0172L204.76 18.0124L204.422 17.5456ZM203.593 29.2513V29.8275H204.169V29.2513H203.593ZM201.217 29.2513H201.793V14.9966H201.217H200.641V29.2513H201.217ZM201.217 14.9966V15.5727H203.593V14.9966V14.4204H201.217V14.9966ZM203.593 14.9966H203.017V16.964H203.593H204.169V14.9966H203.593ZM203.593 16.964L204.081 17.2703C204.33 16.8727 204.572 16.5538 204.804 16.3071L204.385 15.9123L203.965 15.5174C203.67 15.8316 203.383 16.214 203.105 16.6578L203.593 16.964ZM204.385 15.9123L204.798 16.3135C205.003 16.1026 205.279 15.922 205.643 15.7818L205.437 15.2441L205.23 14.7063C204.736 14.8961 204.311 15.1609 203.971 15.511L204.385 15.9123ZM205.437 15.2441L205.64 15.7831C206.008 15.6442 206.54 15.5352 207.257 15.4715L207.206 14.8976L207.155 14.3237C206.387 14.3919 205.74 14.5139 205.233 14.705L205.437 15.2441ZM207.206 14.8976L207.263 15.4709C207.979 15.3993 208.935 15.3624 210.139 15.3624V14.7862V14.2101C208.917 14.2101 207.918 14.2474 207.149 14.3243L207.206 14.8976ZM210.139 14.7862H209.563V16.7784H210.139H210.715V14.7862H210.139ZM210.139 16.7784V16.2023C208.497 16.2023 207.202 16.2601 206.266 16.3802L206.34 16.9517L206.413 17.5231C207.276 17.4123 208.514 17.3546 210.139 17.3546V16.7784ZM206.34 16.9517L206.266 16.3803C205.35 16.4991 204.592 16.7116 204.084 17.0788L204.422 17.5456L204.76 18.0124C205.028 17.8186 205.548 17.6352 206.414 17.523L206.34 16.9517ZM204.422 17.5456L204.091 17.0741C203.571 17.4388 203.256 17.9564 203.149 18.5877L203.717 18.684L204.285 18.7803C204.343 18.4382 204.497 18.1969 204.753 18.0171L204.422 17.5456ZM203.717 18.684L203.149 18.5877C203.059 19.1181 203.017 19.7719 203.017 20.5401H203.593H204.169C204.169 19.8069 204.21 19.2233 204.285 18.7803L203.717 18.684ZM203.593 20.5401H203.017V29.2513H203.593H204.169V20.5401H203.593ZM203.593 29.2513V28.6752H201.217V29.2513V29.8275H203.593V29.2513Z" fill="white" mask="url(#path-13-outside-7_429_149)"/>
<mask id="path-15-outside-8_429_149" maskUnits="userSpaceOnUse" x="212.755" y="9.25134" width="19" height="21" fill="black">
<rect fill="white" x="212.755" y="9.25134" width="19" height="21"/>
<path d="M213.413 29.2513V10.245H215.789V21.2207L225.255 14.9966H228.856L218.796 21.6909L229.252 29.2513H225.713L215.789 21.9384V29.2513H213.413Z"/>
</mask>
<path d="M213.413 29.2513V10.245H215.789V21.2207L225.255 14.9966H228.856L218.796 21.6909L229.252 29.2513H225.713L215.789 21.9384V29.2513H213.413Z" fill="white"/>
<path d="M213.413 29.2513H212.837V29.8275H213.413V29.2513ZM213.413 10.245V9.66885H212.837V10.245H213.413ZM215.789 10.245H216.365V9.66885H215.789V10.245ZM215.789 21.2207H215.213V22.289L216.105 21.7021L215.789 21.2207ZM225.255 14.9966V14.4204H225.082L224.938 14.5152L225.255 14.9966ZM228.856 14.9966L229.175 15.4762L230.761 14.4204H228.856V14.9966ZM218.796 21.6909L218.476 21.2112L217.785 21.6712L218.458 22.1578L218.796 21.6909ZM229.252 29.2513V29.8275H231.032L229.589 28.7845L229.252 29.2513ZM225.713 29.2513L225.371 29.7152L225.523 29.8275H225.713V29.2513ZM215.789 21.9384L216.131 21.4745L215.213 20.7981V21.9384H215.789ZM215.789 29.2513V29.8275H216.365V29.2513H215.789ZM213.413 29.2513H213.989V10.245H213.413H212.837V29.2513H213.413ZM213.413 10.245V10.8211H215.789V10.245V9.66885H213.413V10.245ZM215.789 10.245H215.213V21.2207H215.789H216.365V10.245H215.789ZM215.789 21.2207L216.105 21.7021L225.571 15.478L225.255 14.9966L224.938 14.5152L215.472 20.7393L215.789 21.2207ZM225.255 14.9966V15.5727H228.856V14.9966V14.4204H225.255V14.9966ZM228.856 14.9966L228.536 14.5169L218.476 21.2112L218.796 21.6909L219.115 22.1705L229.175 15.4762L228.856 14.9966ZM218.796 21.6909L218.458 22.1578L228.914 29.7182L229.252 29.2513L229.589 28.7845L219.133 21.224L218.796 21.6909ZM229.252 29.2513V28.6752H225.713V29.2513V29.8275H229.252V29.2513ZM225.713 29.2513L226.054 28.7875L216.131 21.4745L215.789 21.9384L215.447 22.4022L225.371 29.7152L225.713 29.2513ZM215.789 21.9384H215.213V29.2513H215.789H216.365V21.9384H215.789ZM215.789 29.2513V28.6752H213.413V29.2513V29.8275H215.789V29.2513Z" fill="white" mask="url(#path-15-outside-8_429_149)"/>
<mask id="path-17-outside-9_429_149" maskUnits="userSpaceOnUse" x="128.074" y="9.25134" width="23" height="21" fill="black">
<rect fill="white" x="128.074" y="9.25134" width="23" height="21"/>
<path d="M129.128 24.6606C129.128 23.5552 129.231 22.6272 129.438 21.8765C129.644 21.1258 130.04 20.5236 130.626 20.0699C131.211 19.6162 132.061 19.2903 133.175 19.0924C134.296 18.8861 135.765 18.7789 137.58 18.7706H142.01C143.296 18.7706 144.299 18.7294 145.016 18.6469C145.742 18.5561 146.27 18.3912 146.6 18.1519C146.93 17.9045 147.132 17.5497 147.207 17.0878C147.289 16.6176 147.33 16.003 147.33 15.2441C147.33 14.4521 147.256 13.8293 147.108 13.3756C146.959 12.9219 146.666 12.5919 146.229 12.3857C145.792 12.1795 145.144 12.0475 144.286 11.9897C143.437 11.932 142.307 11.9031 140.896 11.9031H138.198C136.722 11.9031 135.538 11.932 134.647 11.9897C133.764 12.0475 133.096 12.1795 132.642 12.3857C132.189 12.5919 131.884 12.9219 131.727 13.3756C131.578 13.8293 131.504 14.4521 131.504 15.2441H129.128C129.128 14.1634 129.248 13.2725 129.487 12.5713C129.735 11.8701 130.176 11.3215 130.811 10.9256C131.455 10.5296 132.362 10.2532 133.533 10.0965C134.705 9.93152 136.219 9.84903 138.075 9.84903H141.02C142.81 9.84903 144.274 9.93152 145.412 10.0965C146.551 10.2532 147.429 10.5296 148.048 10.9256C148.675 11.3215 149.108 11.8701 149.347 12.5713C149.587 13.2725 149.706 14.1634 149.706 15.2441C149.706 16.6299 149.521 17.7271 149.149 18.5355C148.786 19.3357 148.143 19.909 147.219 20.2555C146.303 20.5937 145.008 20.7628 143.334 20.7628H137.889C136.412 20.7628 135.245 20.8123 134.387 20.9113C133.529 21.0103 132.894 21.2 132.482 21.4805C132.069 21.7527 131.801 22.1446 131.677 22.656C131.562 23.1675 131.504 23.8357 131.504 24.6606V27.2715H148.951V29.2513H129.128V24.6606Z"/>
</mask>
<path d="M129.128 24.6606C129.128 23.5552 129.231 22.6272 129.438 21.8765C129.644 21.1258 130.04 20.5236 130.626 20.0699C131.211 19.6162 132.061 19.2903 133.175 19.0924C134.296 18.8861 135.765 18.7789 137.58 18.7706H142.01C143.296 18.7706 144.299 18.7294 145.016 18.6469C145.742 18.5561 146.27 18.3912 146.6 18.1519C146.93 17.9045 147.132 17.5497 147.207 17.0878C147.289 16.6176 147.33 16.003 147.33 15.2441C147.33 14.4521 147.256 13.8293 147.108 13.3756C146.959 12.9219 146.666 12.5919 146.229 12.3857C145.792 12.1795 145.144 12.0475 144.286 11.9897C143.437 11.932 142.307 11.9031 140.896 11.9031H138.198C136.722 11.9031 135.538 11.932 134.647 11.9897C133.764 12.0475 133.096 12.1795 132.642 12.3857C132.189 12.5919 131.884 12.9219 131.727 13.3756C131.578 13.8293 131.504 14.4521 131.504 15.2441H129.128C129.128 14.1634 129.248 13.2725 129.487 12.5713C129.735 11.8701 130.176 11.3215 130.811 10.9256C131.455 10.5296 132.362 10.2532 133.533 10.0965C134.705 9.93152 136.219 9.84903 138.075 9.84903H141.02C142.81 9.84903 144.274 9.93152 145.412 10.0965C146.551 10.2532 147.429 10.5296 148.048 10.9256C148.675 11.3215 149.108 11.8701 149.347 12.5713C149.587 13.2725 149.706 14.1634 149.706 15.2441C149.706 16.6299 149.521 17.7271 149.149 18.5355C148.786 19.3357 148.143 19.909 147.219 20.2555C146.303 20.5937 145.008 20.7628 143.334 20.7628H137.889C136.412 20.7628 135.245 20.8123 134.387 20.9113C133.529 21.0103 132.894 21.2 132.482 21.4805C132.069 21.7527 131.801 22.1446 131.677 22.656C131.562 23.1675 131.504 23.8357 131.504 24.6606V27.2715H148.951V29.2513H129.128V24.6606Z" fill="white"/>
<path d="M133.175 19.0924L133.275 19.6596L133.279 19.659L133.175 19.0924ZM137.58 18.7706V18.1945L137.577 18.1945L137.58 18.7706ZM145.016 18.6469L145.082 19.2193L145.088 19.2186L145.016 18.6469ZM146.6 18.1519L146.938 18.6184L146.946 18.6129L146.6 18.1519ZM147.207 17.0878L146.639 16.9882L146.638 16.9964L147.207 17.0878ZM147.108 13.3756L147.655 13.1964L147.108 13.3756ZM144.286 11.9897L144.247 12.5645L144.248 12.5646L144.286 11.9897ZM134.647 11.9897L134.61 11.4148L134.609 11.4148L134.647 11.9897ZM131.727 13.3756L131.182 13.1874L131.179 13.1964L131.727 13.3756ZM131.504 15.2441V15.8202H132.08V15.2441H131.504ZM129.128 15.2441H128.552V15.8202H129.128V15.2441ZM129.487 12.5713L128.944 12.3795L128.942 12.3853L129.487 12.5713ZM130.811 10.9256L130.509 10.4349L130.506 10.4366L130.811 10.9256ZM133.533 10.0965L133.61 10.6676L133.614 10.667L133.533 10.0965ZM145.412 10.0965L145.33 10.6667L145.334 10.6673L145.412 10.0965ZM148.048 10.9256L147.737 11.4108L147.74 11.4127L148.048 10.9256ZM149.149 18.5355L148.626 18.2951L148.625 18.2975L149.149 18.5355ZM147.219 20.2555L147.419 20.796L147.421 20.795L147.219 20.2555ZM132.482 21.4805L132.799 21.9614L132.806 21.9569L132.482 21.4805ZM131.677 22.656L131.117 22.5205L131.115 22.5291L131.677 22.656ZM131.504 27.2715H130.928V27.8477H131.504V27.2715ZM148.951 27.2715H149.527V26.6954H148.951V27.2715ZM148.951 29.2513V29.8275H149.527V29.2513H148.951ZM129.128 29.2513H128.552V29.8275H129.128V29.2513ZM129.128 24.6606H129.704C129.704 23.5871 129.805 22.7141 129.993 22.0291L129.438 21.8765L128.882 21.7239C128.658 22.5402 128.552 23.5234 128.552 24.6606H129.128ZM129.438 21.8765L129.993 22.0291C130.168 21.3921 130.496 20.8987 130.978 20.5254L130.626 20.0699L130.273 19.6144C129.583 20.1485 129.12 20.8595 128.882 21.7239L129.438 21.8765ZM130.626 20.0699L130.978 20.5254C131.462 20.151 132.209 19.8491 133.275 19.6596L133.175 19.0924L133.074 18.5251C131.912 18.7316 130.961 19.0813 130.273 19.6144L130.626 20.0699ZM133.175 19.0924L133.279 19.659C134.354 19.4614 135.784 19.3549 137.582 19.3468L137.58 18.7706L137.577 18.1945C135.746 18.2028 134.239 18.3108 133.07 18.5257L133.175 19.0924ZM137.58 18.7706V19.3468H142.01V18.7706V18.1945H137.58V18.7706ZM142.01 18.7706V19.3468C143.304 19.3468 144.332 19.3055 145.082 19.2193L145.016 18.6469L144.951 18.0745C144.265 18.1533 143.289 18.1945 142.01 18.1945V18.7706ZM145.016 18.6469L145.088 19.2186C145.845 19.124 146.49 18.9437 146.938 18.6184L146.6 18.1519L146.262 17.6855C146.051 17.8386 145.64 17.9883 144.945 18.0752L145.016 18.6469ZM146.6 18.1519L146.946 18.6129C147.412 18.2635 147.681 17.7671 147.775 17.1792L147.207 17.0878L146.638 16.9964C146.584 17.3323 146.449 17.5454 146.255 17.691L146.6 18.1519ZM147.207 17.0878L147.774 17.1873C147.865 16.6709 147.906 16.0193 147.906 15.2441H147.33H146.754C146.754 15.9866 146.713 16.5642 146.639 16.9882L147.207 17.0878ZM147.33 15.2441H147.906C147.906 14.4258 147.831 13.7335 147.655 13.1964L147.108 13.3756L146.56 13.5548C146.681 13.9251 146.754 14.4785 146.754 15.2441H147.33ZM147.108 13.3756L147.655 13.1964C147.457 12.5899 147.053 12.1375 146.475 11.8646L146.229 12.3857L145.983 12.9068C146.279 13.0464 146.462 13.2538 146.56 13.5548L147.108 13.3756ZM146.229 12.3857L146.475 11.8646C145.94 11.6125 145.208 11.4743 144.325 11.4149L144.286 11.9897L144.248 12.5646C145.081 12.6206 145.643 12.7464 145.983 12.9068L146.229 12.3857ZM144.286 11.9897L144.325 11.4149C143.457 11.3559 142.312 11.327 140.896 11.327V11.9031V12.4792C142.301 12.4792 143.416 12.5081 144.247 12.5645L144.286 11.9897ZM140.896 11.9031V11.327H138.198V11.9031V12.4792H140.896V11.9031ZM138.198 11.9031V11.327C136.716 11.327 135.518 11.3559 134.61 11.4148L134.647 11.9897L134.684 12.5647C135.557 12.5081 136.727 12.4792 138.198 12.4792V11.9031ZM134.647 11.9897L134.609 11.4148C133.703 11.4741 132.952 11.612 132.404 11.8612L132.642 12.3857L132.881 12.9102C133.24 12.7469 133.826 12.6208 134.685 12.5646L134.647 11.9897ZM132.642 12.3857L132.404 11.8612C131.813 12.13 131.393 12.5781 131.182 13.1875L131.727 13.3756L132.271 13.5637C132.374 13.2657 132.565 13.0538 132.881 12.9102L132.642 12.3857ZM131.727 13.3756L131.179 13.1964C131.003 13.7335 130.928 14.4258 130.928 15.2441H131.504H132.08C132.08 14.4785 132.153 13.9251 132.274 13.5548L131.727 13.3756ZM131.504 15.2441V14.6679H129.128V15.2441V15.8202H131.504V15.2441ZM129.128 15.2441H129.704C129.704 14.2004 129.821 13.378 130.032 12.7573L129.487 12.5713L128.942 12.3853C128.675 13.167 128.552 14.1264 128.552 15.2441H129.128ZM129.487 12.5713L130.03 12.763C130.234 12.186 130.591 11.7418 131.116 11.4145L130.811 10.9256L130.506 10.4366C129.761 10.9012 129.235 11.5542 128.944 12.3795L129.487 12.5713ZM130.811 10.9256L131.113 11.4162C131.66 11.0797 132.478 10.819 133.61 10.6676L133.533 10.0965L133.457 9.52545C132.246 9.68749 131.249 9.97952 130.509 10.4349L130.811 10.9256ZM133.533 10.0965L133.614 10.667C134.748 10.5073 136.232 10.4252 138.075 10.4252V9.84903V9.27288C136.205 9.27288 134.662 9.35577 133.453 9.52599L133.533 10.0965ZM138.075 9.84903V10.4252H141.02V9.84903V9.27288H138.075V9.84903ZM141.02 9.84903V10.4252C142.795 10.4252 144.229 10.5072 145.33 10.6667L145.412 10.0965L145.495 9.52632C144.319 9.35582 142.824 9.27288 141.02 9.27288V9.84903ZM145.412 10.0965L145.334 10.6673C146.431 10.8184 147.217 11.078 147.737 11.4108L148.048 10.9256L148.359 10.4403C147.641 9.98115 146.67 9.6881 145.491 9.52575L145.412 10.0965ZM148.048 10.9256L147.74 11.4127C148.256 11.7384 148.605 12.1808 148.802 12.7573L149.347 12.5713L149.893 12.3853C149.611 11.5594 149.094 10.9046 148.356 10.4384L148.048 10.9256ZM149.347 12.5713L148.802 12.7573C149.014 13.378 149.13 14.2004 149.13 15.2441H149.706H150.282C150.282 14.1264 150.159 13.167 149.893 12.3853L149.347 12.5713ZM149.706 15.2441H149.13C149.13 16.5885 148.948 17.5924 148.626 18.2951L149.149 18.5355L149.673 18.7759C150.093 17.8618 150.282 16.6714 150.282 15.2441H149.706ZM149.149 18.5355L148.625 18.2975C148.333 18.9407 147.817 19.4161 147.017 19.716L147.219 20.2555L147.421 20.795C148.469 20.402 149.24 19.7307 149.674 18.7735L149.149 18.5355ZM147.219 20.2555L147.019 19.715C146.197 20.0186 144.982 20.1867 143.334 20.1867V20.7628V21.339C145.035 21.339 146.409 21.1688 147.419 20.796L147.219 20.2555ZM143.334 20.7628V20.1867H137.889V20.7628V21.339H143.334V20.7628ZM137.889 20.7628V20.1867C136.403 20.1867 135.211 20.2363 134.321 20.339L134.387 20.9113L134.453 21.4837C135.279 21.3884 136.421 21.339 137.889 21.339V20.7628ZM134.387 20.9113L134.321 20.339C133.429 20.4419 132.684 20.646 132.158 21.0041L132.482 21.4805L132.806 21.9569C133.104 21.7541 133.629 21.5787 134.453 21.4837L134.387 20.9113ZM132.482 21.4805L132.164 20.9997C131.622 21.3577 131.273 21.8775 131.117 22.5206L131.677 22.656L132.237 22.7915C132.329 22.4117 132.517 22.1478 132.799 21.9614L132.482 21.4805ZM131.677 22.656L131.115 22.5291C130.987 23.0989 130.928 23.8143 130.928 24.6606H131.504H132.08C132.08 23.857 132.137 23.2361 132.239 22.7829L131.677 22.656ZM131.504 24.6606H130.928V27.2715H131.504H132.08V24.6606H131.504ZM131.504 27.2715V27.8477H148.951V27.2715V26.6954H131.504V27.2715ZM148.951 27.2715H148.375V29.2513H148.951H149.527V27.2715H148.951ZM148.951 29.2513V28.6752H129.128V29.2513V29.8275H148.951V29.2513ZM129.128 29.2513H129.704V24.6606H129.128H128.552V29.2513H129.128Z" fill="white" mask="url(#path-17-outside-9_429_149)"/>
<path d="M15.6755 5.9864L18.996 15.1486C19.2434 15.8313 20.2089 15.8313 20.4563 15.1486L23.7769 5.9864C23.8661 5.7401 23.8252 5.4654 23.668 5.25581L20.3475 0.828426C20.0368 0.41423 19.4155 0.41423 19.1049 0.828426L15.7843 5.25581C15.6271 5.4654 15.5862 5.7401 15.6755 5.9864Z" fill="url(#paint0_linear_429_149)"/>
<path d="M26.1687 7.45228L22.7898 15.5096C22.521 16.1507 23.1653 16.795 23.8064 16.5262L31.8637 13.1473C32.1156 13.0416 32.2935 12.8114 32.3322 12.5409L33.1119 7.0827C33.1851 6.57016 32.7458 6.13084 32.2333 6.20406L26.7751 6.9838C26.5046 7.02244 26.2744 7.20034 26.1687 7.45228Z" fill="url(#paint1_linear_429_149)"/>
<path d="M33.5941 15.5125L24.0146 18.8371C23.3186 19.0787 23.3186 20.063 24.0146 20.3045L33.5941 23.6291C33.838 23.7138 34.1081 23.6716 34.3147 23.5167L38.7475 20.1921C39.1617 19.8814 39.1617 19.2601 38.7475 18.9495L34.3147 15.6249C34.1081 15.4699 33.838 15.4278 33.5941 15.5125Z" fill="url(#paint2_linear_429_149)"/>
<path d="M31.8641 26.0137L23.8068 22.6348C23.1657 22.366 22.5214 23.0102 22.7903 23.6513L26.1691 31.7087C26.2748 31.9606 26.505 32.1385 26.7755 32.1772L32.2337 32.9569C32.7462 33.0301 33.1856 32.5908 33.1123 32.0783L32.3326 26.62C32.294 26.3496 32.1161 26.1193 31.8641 26.0137Z" fill="url(#paint3_linear_429_149)"/>
<path d="M23.7818 33.4659L20.4601 24.1218C20.215 23.4323 19.2395 23.4334 18.996 24.1234L15.6715 33.5429C15.5844 33.7896 15.6274 34.0635 15.7859 34.2717L19.1051 38.6324C19.4173 39.0425 20.0351 39.0403 20.3443 38.628L23.6713 34.192C23.8275 33.9838 23.869 33.7111 23.7818 33.4659Z" fill="url(#paint4_linear_429_149)"/>
<path d="M13.303 31.7087L16.6819 23.6514C16.9507 23.0103 16.3064 22.366 15.6653 22.6349L7.60797 26.0137C7.35603 26.1194 7.17813 26.3497 7.1395 26.6201L6.35976 32.0783C6.28654 32.5909 6.72586 33.0302 7.2384 32.957L12.6966 32.1772C12.9671 32.1386 13.1973 31.9607 13.303 31.7087Z" fill="url(#paint5_linear_429_149)"/>
<path d="M5.98485 23.6239L15.2736 20.3021C15.9605 20.0565 15.9605 19.0852 15.2736 18.8395L5.98485 15.5177C5.73928 15.4299 5.46601 15.4712 5.25737 15.6277L0.828278 18.9495C0.414082 19.2602 0.414082 19.8815 0.828278 20.1921L5.25737 23.5139C5.46602 23.6704 5.73928 23.7117 5.98485 23.6239Z" fill="url(#paint6_linear_429_149)"/>
<path d="M7.60755 13.1473L15.6649 16.5262C16.306 16.7951 16.9503 16.1508 16.6814 15.5097L13.3025 7.45233C13.1969 7.20039 12.9666 7.02249 12.6962 6.98386L7.23797 6.20412C6.72543 6.1309 6.28611 6.57022 6.35933 7.08276L7.13907 12.541C7.17771 12.8114 7.35561 13.0417 7.60755 13.1473Z" fill="url(#paint7_linear_429_149)"/>
<defs>
<linearGradient id="paint0_linear_429_149" x1="15.4353" y1="12.8725" x2="24.017" y2="4.29085" gradientUnits="userSpaceOnUse">
<stop stop-color="#48D6A2"/>
<stop offset="1" stop-color="#0C9A66"/>
</linearGradient>
<linearGradient id="paint1_linear_429_149" x1="22.0557" y1="11.659" x2="33.2584" y2="11.659" gradientUnits="userSpaceOnUse">
<stop stop-color="#48D6A2"/>
<stop offset="1" stop-color="#0C9A66"/>
</linearGradient>
<linearGradient id="paint2_linear_429_149" x1="26.3194" y1="15.152" x2="35.1571" y2="23.9896" gradientUnits="userSpaceOnUse">
<stop stop-color="#48D6A2"/>
<stop offset="1" stop-color="#0C9A66"/>
</linearGradient>
<linearGradient id="paint3_linear_429_149" x1="27.6574" y1="21.9006" x2="27.6574" y2="33.1033" gradientUnits="userSpaceOnUse">
<stop stop-color="#48D6A2"/>
<stop offset="1" stop-color="#0C9A66"/>
</linearGradient>
<linearGradient id="paint4_linear_429_149" x1="24.0748" y1="26.405" x2="15.3786" y2="35.1012" gradientUnits="userSpaceOnUse">
<stop stop-color="#48D6A2"/>
<stop offset="1" stop-color="#0C9A66"/>
</linearGradient>
<linearGradient id="paint5_linear_429_149" x1="17.416" y1="27.502" x2="6.21332" y2="27.502" gradientUnits="userSpaceOnUse">
<stop stop-color="#48D6A2"/>
<stop offset="1" stop-color="#0C9A66"/>
</linearGradient>
<linearGradient id="paint6_linear_429_149" x1="12.9888" y1="23.9005" x2="4.32953" y2="15.2412" gradientUnits="userSpaceOnUse">
<stop stop-color="#48D6A2"/>
<stop offset="1" stop-color="#0C9A66"/>
</linearGradient>
<linearGradient id="paint7_linear_429_149" x1="11.8142" y1="17.2604" x2="11.8142" y2="6.05768" gradientUnits="userSpaceOnUse">
<stop stop-color="#48D6A2"/>
<stop offset="1" stop-color="#0C9A66"/>
</linearGradient>
</defs>
</svg>
